<svg id="people" xmlns="http://www.w3.org/2000/svg" width="40.743" height="40.743" viewBox="0 0 40.743 40.743">
  <path id="Path_6" data-name="Path 6" d="M0,0H40.743V40.743H0Z" fill="none"/>
  <path id="Path_7" data-name="Path 7" d="M26.464,15.186a5.093,5.093,0,1,0-5.093-5.093A5.072,5.072,0,0,0,26.464,15.186Zm-13.581,0A5.093,5.093,0,1,0,7.79,10.093,5.072,5.072,0,0,0,12.883,15.186Zm0,3.4C8.928,18.581,1,20.567,1,24.523v4.244H24.767V24.523C24.767,20.567,16.839,18.581,12.883,18.581Zm13.581,0c-.492,0-1.053.034-1.647.085a7.164,7.164,0,0,1,3.344,5.857v4.244H38.348V24.523C38.348,20.567,30.42,18.581,26.464,18.581Z" transform="translate(0.698 3.488)" fill="#f2ea29"/>
</svg>
